<svg xmlns="http://www.w3.org/2000/svg" viewBox="0 0 202 140"><path fill="#3983FA" fill-rule="evenodd" d="M113.477 136 44.495 65.335c-.753-.772-2.109-.772-2.862 0L4 103.887V4h194v101.131l-54.841-56.18c-.753-.771-2.11-.771-2.862 0l-47.37 48.526a2 2 0 1 0 2.862 2.794l45.939-47.06 55.964 57.33c.095.098.199.183.308.257V136h-84.523zM4 109.613l39.064-40.018L107.887 136H4v-26.387zM200 0a2 2 0 0 1 2 2v136a2 2 0 0 1-2 2H2a2 2 0 0 1-2-2V2a2 2 0 0 1 2-2h198zm-98.351 46.017c0-9.717-7.739-17.622-17.25-17.622s-17.25 7.905-17.25 17.622c0 9.717 7.739 17.622 17.25 17.622s17.25-7.905 17.25-17.622zm-17.25 13.622c-7.306 0-13.25-6.111-13.25-13.622s5.944-13.622 13.25-13.622 13.25 6.11 13.25 13.622c0 7.51-5.944 13.622-13.25 13.622z"/></svg>